<?xml version="1.0" encoding="UTF-8" standalone="no"?>
<svg
   width="205"
   height="64"
   viewBox="0 0 205 64"
   version="1.1"
   id="svg2"
   xmlns="http://www.w3.org/2000/svg"
   xmlns:svg="http://www.w3.org/2000/svg"
   xmlns:xlink="http://www.w3.org/1999/xlink">
  <defs id="defs2">
    <clipPath id="icon-mask">
      <rect x="6.4" y="9.6" width="51.2" height="44.8" rx="8" ry="8" />
    </clipPath>
  </defs>
  <!-- Tab icon (scaled 85%, clipped to 80% rounded rect) -->
  <g transform="translate(32,32) scale(0.85) translate(-32,-32)">
    <g clip-path="url(#icon-mask)">
  
  <!-- TabMail v2 - Icon only (no background) -->
  <defs
     id="defs1">
    <linearGradient
       id="linearGradient30"
      >
      <stop
         style="stop-color:#fffdf5;stop-opacity:1;"
         offset="0.59786952"
         id="stop30" />
      <stop
         style="stop-color:#fffdf5;stop-opacity:0;"
         offset="1"
         id="stop31" />
    </linearGradient>
    <linearGradient
       id="linearGradient26"
      >
      <stop
         style="stop-color:#80b9ff;stop-opacity:0;"
         offset="0"
         id="stop26" />
      <stop
         style="stop-color:#e5efff;stop-opacity:1;"
         offset="0.15978697"
         id="stop27" />
    </linearGradient>
    <linearGradient
       id="linearGradient24"
      >
      <stop
         style="stop-color:#7b00ff;stop-opacity:1;"
         offset="0"
         id="stop24" />
      <stop
         style="stop-color:#0091ff;stop-opacity:1;"
         offset="1"
         id="stop25" />
    </linearGradient>
    <linearGradient
       id="linearGradient2"
      >
      <stop
         style="stop-color:#ffaa00;stop-opacity:1;"
         offset="0"
         id="stop2" />
      <stop
         style="stop-color:#ffff00;stop-opacity:1;"
         offset="1"
         id="stop3" />
    </linearGradient>
    <clipPath
       id="body-clip">
      <rect
         x="3.5"
         y="17.5"
         width="57"
         height="35"
         rx="4"
         ry="4"
         id="rect1" />
    </clipPath>
    <clipPath
       id="below-v-screen">
      <path
         d="M 0,64 V 26.6 L 32,43.5 64,26.6 V 64 Z"
         id="path-below-v-screen" />
    </clipPath>
    <clipPath
       id="clipPath1">
      <path
         d="M 0,64 V 26.6 L 32,43.5 64,26.6 V 64 Z"
         id="path1" />
    </clipPath>
    <clipPath
       id="below-v-screen-2">
      <path
         d="M 0,64 V 26.6 L 32,43.5 64,26.6 V 64 Z"
         id="path-below-v-screen-8" />
    </clipPath>
    <clipPath
       id="below-v-screen-5">
      <path
         d="M 0,64 V 26.6 L 32,43.5 64,26.6 V 64 Z"
         id="path-below-v-screen-9" />
    </clipPath>
    <clipPath
       id="below-v-screen-5-2">
      <path
         d="M 0,64 V 26.6 L 32,43.5 64,26.6 V 64 Z"
         id="path-below-v-screen-9-4" />
    </clipPath>
    <clipPath
       id="below-v-screen-59">
      <path
         d="M 0,64 V 26.6 L 32,43.5 64,26.6 V 64 Z"
         id="path-below-v-screen-4" />
    </clipPath>
    <clipPath
       clipPathUnits="userSpaceOnUse"
       id="clipPath4">
      <rect
         id="rect4"
         x="6.224782"
         y="19.585211"
         width="52.076763"
         height="29.75"
         rx="3.6545098"
         ry="3.4000001"
         style="fill:url(#linearGradient5);fill-opacity:1;stroke:none;stroke-width:2.30715;stroke-linejoin:round;stroke-dasharray:none"
         />
    </clipPath>
    <linearGradient
      
       xlink:href="#linearGradient2"
       id="linearGradient5"
       gradientUnits="userSpaceOnUse"
       gradientTransform="matrix(0.91362743,0,0,0.85,3.0270863,4.7102102)"
       x1="42.896652"
       y1="61.970154"
       x2="21.103355"
       y2="8.0298529" />
    <clipPath
       clipPathUnits="userSpaceOnUse"
       id="clipPath6">
      <rect
         style="opacity:0.29199;fill:#ff0f0f;fill-opacity:1;stroke:#ff0f0f;stroke-width:0.372916;stroke-linecap:round;stroke-linejoin:round;stroke-miterlimit:0;stroke-dasharray:none;stroke-opacity:1;paint-order:normal"
         id="rect6"
         width="59.670677"
         height="41.062321"
         x="-31.682486"
         y="5.6869011"
         rx="2.6358037"
         ry="9.8556185"
         transform="matrix(0.87804356,-0.47858072,0.69995924,0.71418279,0,0)" />
    </clipPath>
    <linearGradient
      
       xlink:href="#linearGradient24"
       id="linearGradient25"
       x1="63.026161"
       y1="59.164543"
       x2="0.56407583"
       y2="10.363812"
       gradientUnits="userSpaceOnUse"
       gradientTransform="translate(0,-0.15839114)" />
    <linearGradient
      
       xlink:href="#linearGradient26"
       id="linearGradient27"
       x1="60.120936"
       y1="17.58165"
       x2="83.76739"
       y2="17.58165"
       gradientUnits="userSpaceOnUse"
       gradientTransform="matrix(0.89022558,0,0,0.86660817,6.5280414,1.9894777)" />
    <linearGradient
      
       xlink:href="#linearGradient30"
       id="linearGradient31"
       x1="46.726906"
       y1="20.015524"
       x2="46.726906"
       y2="48.54158"
       gradientUnits="userSpaceOnUse" />
  </defs>
  <!-- No background rect — icon only -->
  <g
    
     id="layer5"
    
     transform="matrix(0.80650175,0,0,1.0015064,6.4797026,-2.6147139)"
     style="stroke-width:2.22536101;stroke-dasharray:none">
    <rect
       style="opacity:1;fill:url(#linearGradient25);stroke:none;stroke-width:0.376521;stroke-linecap:round;stroke-linejoin:round;stroke-miterlimit:0;stroke-dasharray:none;stroke-opacity:1;paint-order:normal"
       id="rect7"
       width="79.265526"
       height="63.673233"
       x="-7.8376422"
       y="2.7691715"
       rx="5.4064717"
       ry="5.1181536" />
    <g
      
       id="layer11"
      
       transform="matrix(0.70753881,0,0,0.56977297,6.1114743,18.560509)">
      <path
         style="font-size:32.3986px;line-height:0;font-family:Roboto;-inkscape-font-specification:Roboto;fill:#f5faff;stroke:#f5faff;stroke-width:1.80842;stroke-linejoin:round;stroke-miterlimit:0"
         d="m 5.7927428,16.97563 h 2.9582707 l 7.5459635,18.7779 7.530144,-18.7779 h 2.97409 L 17.43599,40.00901 h -2.309666 z m -0.9649974,0 h 2.6102389 l 0.42713,14.047831 V 40.00901 H 4.8277454 Z m 20.3124046,0 h 2.610239 V 40.00901 H 24.71302 v -8.985549 z"
         id="text1"
        
         aria-label="M" />
      <path
         style="font-size:34.5594px;font-family:'Source Code Pro';-inkscape-font-specification:'Source Code Pro';fill:#f5faff;stroke:#f5faff;stroke-width:0.879321;stroke-linecap:round;stroke-linejoin:round;stroke-miterlimit:0"
         d="m 43.483394,48.143881 q -2.039005,0 -3.870653,-0.863985 -1.831648,-0.863985 -3.214024,-2.591955 -1.382376,-1.72797 -2.211801,-4.285365 -0.794867,-2.557396 -0.794867,-5.875098 0,-4.423603 1.347817,-7.361152 1.382376,-2.972108 3.663296,-4.458162 2.31548,-1.486054 5.149351,-1.486054 2.384598,0 3.939771,1.071341 1.555173,1.071341 2.31548,2.937549 0.760307,1.866208 0.760307,4.216247 v 10.264141 h -1.72797 l -0.241916,-2.004445 h -0.138238 q -0.760307,0.967663 -2.004445,1.69341 -1.209579,0.725748 -2.557395,0.725748 -1.209579,0 -2.246361,-0.552951 -1.002223,-0.55295 -1.624292,-1.555173 -0.58751,-1.036781 -0.58751,-2.419157 0,-1.76253 1.036782,-2.937549 1.071342,-1.17502 3.110346,-1.900767 2.039005,-0.725748 4.976553,-1.071342 v -0.483831 q 0,-1.658851 -0.55295,-3.041227 -0.518391,-1.382376 -1.658851,-2.211802 -1.105901,-0.829425 -2.937549,-0.829425 -1.555173,0 -2.972108,0.725747 -1.416936,0.725747 -2.522836,2.177242 -1.105901,1.416935 -1.72797,3.594178 -0.622069,2.142682 -0.622069,5.011112 0,3.697856 1.036782,6.32437 1.071341,2.591955 2.86843,3.939772 1.831648,1.347816 4.078009,1.347816 1.555173,0 2.695633,-0.414712 1.175019,-0.380154 2.177242,-1.140461 l 0.967663,1.555173 q -1.347817,0.898545 -2.799311,1.382376 -1.416936,0.518391 -3.110346,0.518391 z m 1.002222,-10.022225 q 0.967664,0 1.935327,-0.552951 0.967663,-0.587509 1.935326,-1.658851 V 31.55537 q -3.594177,0.518391 -5.114791,1.451495 -1.520613,0.933103 -1.520613,2.522836 0,1.209579 0.760306,1.900767 0.760307,0.691188 2.004445,0.691188 z"
         id="text25"
        
         transform="scale(0.98408169,1.0161758)"
         aria-label="@" />
      <path
         d="M 51.240937,29.024407 V 45.793358 H 49.210322 V 29.024407 Z"
         id="text2-5"
         style="font-size:22.3586px;line-height:0;font-family:Roboto;-inkscape-font-specification:Roboto;fill:#f5faff;stroke:#f5faff;stroke-width:2.09612;stroke-linejoin:round;stroke-miterlimit:0"
        
         transform="scale(1.1366356,0.87978944)"
         aria-label="l" />
      <path
         d="M 77.026359,13.47705 V 35.1297 H 74.404358 V 13.47705 Z"
         id="text2"
         style="font-size:28.8702px;line-height:0;font-family:Roboto;-inkscape-font-specification:Roboto;fill:#f5faff;stroke:#f5faff;stroke-width:2.70658;stroke-linejoin:round;stroke-miterlimit:0"
        
         transform="scale(0.87912691,1.1374922)"
         aria-label="l" />
      <g
        
         id="layer10"
        
         transform="matrix(1.2213958,0,0,1.2213958,-40.945327,-3.4462883)"
         style="stroke-width:2.22536;stroke-dasharray:none">
        <path
           id="arrow-shaft"
           d="M 60.049234,17.22588 H 81.099911"
           style="display:inline;fill:none;stroke:url(#linearGradient27);stroke-width:2.42948;stroke-linecap:butt;stroke-dasharray:none;paint-order:normal" />
        <path
           id="arrowhead"
           d="m 77.793333,13.053161 4.276711,4.172719 -4.276711,4.172718"
           style="display:inline;fill:none;stroke:#fffcf5;stroke-width:1.9932;stroke-linecap:butt;stroke-linejoin:round;stroke-dasharray:none;stroke-opacity:1;paint-order:normal" />
      </g>
    </g>
  </g>
    </g>
  </g>
  <!-- TabMail text -->
  <path
     style="font-weight:600;font-size:37.3333px;font-family:Inter;-inkscape-font-specification:'Inter, Semi-Bold';dominant-baseline:middle;fill:#2c2a34"
     d="m 62,23.395829 h 8.38541 v 23.059877 h 4.867183 V 23.395829 h 8.36718 V 19.29427 H 62 Z m 28.601538,23.479147 c 3.171873,0 5.104163,-1.476561 5.997391,-3.22656 h 0.182292 v 2.80729 h 4.539059 V 32.83853 c 0,-5.432287 -4.484372,-7.018223 -8.312494,-7.018223 -4.08333,0 -7.437493,1.731769 -8.640617,5.322912 l 4.393225,0.893228 c 0.492187,-1.348957 1.895832,-2.57031 4.265621,-2.57031 2.315103,0 3.554685,1.166665 3.554685,3.153643 v 0.09115 c 0,1.403644 -1.49479,1.458332 -5.031246,1.841144 -3.937496,0.41927 -7.765618,1.585936 -7.765618,6.179682 0,4.010413 2.934893,6.143224 6.817702,6.143224 z m 1.221353,-3.518226 c -2.005206,0 -3.445309,-0.911458 -3.445309,-2.679685 0,-1.859374 1.604165,-2.643227 3.736976,-2.934894 1.221353,-0.164062 3.86458,-0.492187 4.5026,-1.002603 v 2.406248 c 0,2.260415 -1.877602,4.210934 -4.794267,4.210934 z m 25.283839,3.463539 c 4.83072,0 8.42186,-3.828122 8.42186,-10.518221 0,-6.781244 -3.70051,-10.481761 -8.40364,-10.481761 -3.6276,0 -5.12239,2.187498 -5.83332,3.627601 h -0.20052 V 19.29427 h -4.73958 v 27.161436 h 4.6302 v -3.22656 h 0.3099 c 0.72916,1.476561 2.3151,3.591143 5.8151,3.591143 z m -1.27605,-3.901039 c -3.09895,0 -4.83072,-2.661456 -4.83072,-6.635411 0,-3.973955 1.69531,-6.562494 4.83072,-6.562494 3.20834,0 4.83073,2.770831 4.83073,6.562494 0,3.828122 -1.65885,6.635411 -4.83073,6.635411 z m 14.03645,3.536456 h 4.77604 V 32.747384 c 0,-2.059894 -0.10938,-5.815099 -0.1823,-8.895826 1.00261,3.499997 2.09636,7.127598 2.73438,8.895826 l 5.08593,13.708322 h 4.13802 l 5.01301,-13.708322 c 0.63802,-1.822915 1.78646,-5.559891 2.71615,-9.041659 -0.0547,3.22656 -0.16407,7.018223 -0.16407,9.041659 v 13.708322 h 4.84896 V 19.29427 h -7.34635 l -5.10416,14.018218 c -0.52865,1.622394 -1.36719,4.976558 -2.00521,7.656243 -0.61979,-2.716143 -1.47656,-6.052078 -2.02343,-7.656243 L 137.19525,19.29427 h -7.32812 z m 39.90361,0.41927 c 3.17187,0 5.10416,-1.476561 5.99739,-3.22656 h 0.18229 v 2.80729 h 4.53906 V 32.83853 c 0,-5.432287 -4.48437,-7.018223 -8.31249,-7.018223 -4.08333,0 -7.43749,1.731769 -8.64062,5.322912 l 4.39323,0.893228 c 0.49218,-1.348957 1.89583,-2.57031 4.26562,-2.57031 2.3151,0 3.55468,1.166665 3.55468,3.153643 v 0.09115 c 0,1.403644 -1.49479,1.458332 -5.03124,1.841144 -3.9375,0.41927 -7.76562,1.585936 -7.76562,6.179682 0,4.010413 2.93489,6.143224 6.8177,6.143224 z m 1.22135,-3.518226 c -2.0052,0 -3.44531,-0.911458 -3.44531,-2.679685 0,-1.859374 1.60417,-2.643227 3.73698,-2.934894 1.22135,-0.164062 3.86458,-0.492187 4.5026,-1.002603 v 2.406248 c 0,2.260415 -1.8776,4.210934 -4.79427,4.210934 z m 14.52864,3.098956 h 4.73958 V 26.075515 h -4.73958 z m 2.36979,-23.260397 c 1.51302,0 2.77083,-1.166666 2.77083,-2.606769 0,-1.440103 -1.25781,-2.588539 -2.77083,-2.588539 -1.51302,0 -2.7526,1.148436 -2.7526,2.588539 0,1.440103 1.23958,2.606769 2.7526,2.606769 z m 12.14062,-3.901039 h -4.73958 v 27.161436 h 4.73958 z"
     id="text2"
     aria-label="TabMail" />
</svg>
