<?xml version="1.0" encoding="UTF-8" standalone="no"?>
<svg
   width="205"
   height="64"
   viewBox="0 0 205 64"
   version="1.1"
   id="svg2"
   xmlns="http://www.w3.org/2000/svg"
   xmlns:svg="http://www.w3.org/2000/svg"
   xmlns:xlink="http://www.w3.org/1999/xlink">
  <defs id="defs2" />
  <!-- Tab icon (scaled 85%) -->
  <g transform="translate(-2,0) translate(32,32) scale(0.85) translate(-32,-32)">
  
  <!-- TabMail v2 - Icon only (no background) -->
  <defs
     id="defs1">
    <linearGradient
       id="linearGradient2"
      >
      <stop
         style="stop-color:#ffaa00;stop-opacity:1;"
         offset="0"
         id="stop2" />
      <stop
         style="stop-color:#ffff00;stop-opacity:1;"
         offset="1"
         id="stop3" />
    </linearGradient>
    <clipPath
       id="body-clip">
      <rect
         x="3.5"
         y="17.5"
         width="57"
         height="35"
         rx="4"
         ry="4"
         id="rect1" />
    </clipPath>
    <clipPath
       id="below-v-screen">
      <path
         d="M 0,64 V 26.6 L 32,43.5 64,26.6 V 64 Z"
         id="path-below-v-screen" />
    </clipPath>
    <clipPath
       id="clipPath1">
      <path
         d="M 0,64 V 26.6 L 32,43.5 64,26.6 V 64 Z"
         id="path1" />
    </clipPath>
    <clipPath
       id="below-v-screen-2">
      <path
         d="M 0,64 V 26.6 L 32,43.5 64,26.6 V 64 Z"
         id="path-below-v-screen-8" />
    </clipPath>
    <clipPath
       id="below-v-screen-5">
      <path
         d="M 0,64 V 26.6 L 32,43.5 64,26.6 V 64 Z"
         id="path-below-v-screen-9" />
    </clipPath>
    <clipPath
       id="below-v-screen-5-2">
      <path
         d="M 0,64 V 26.6 L 32,43.5 64,26.6 V 64 Z"
         id="path-below-v-screen-9-4" />
    </clipPath>
    <clipPath
       id="below-v-screen-59">
      <path
         d="M 0,64 V 26.6 L 32,43.5 64,26.6 V 64 Z"
         id="path-below-v-screen-4" />
    </clipPath>
    <linearGradient
      
       xlink:href="#linearGradient2"
       id="linearGradient3"
       x1="42.896652"
       y1="61.970154"
       x2="21.103355"
       y2="8.0298529"
       gradientUnits="userSpaceOnUse"
       gradientTransform="matrix(0.91362743,0,0,0.85,3.0270861,5.6407519)" />
    <clipPath
       clipPathUnits="userSpaceOnUse"
       id="clipPath4">
      <rect
         id="rect4"
         x="6.224782"
         y="19.585211"
         width="52.076763"
         height="29.75"
         rx="3.6545098"
         ry="3.4000001"
         style="fill:url(#linearGradient5);fill-opacity:1;stroke:none;stroke-width:2.30715;stroke-linejoin:round;stroke-dasharray:none"
         />
    </clipPath>
    <linearGradient
      
       xlink:href="#linearGradient2"
       id="linearGradient5"
       gradientUnits="userSpaceOnUse"
       gradientTransform="matrix(0.91362743,0,0,0.85,3.0270863,4.7102102)"
       x1="42.896652"
       y1="61.970154"
       x2="21.103355"
       y2="8.0298529" />
  </defs>
  <!-- No background rect — icon only -->
  <g
    
     id="layer5"
    
     transform="matrix(0.80650175,0,0,1.0015064,6.4797026,-2.6147139)"
     style="stroke-width:2.22536101;stroke-dasharray:none">
    <rect
       id="envelope-body-32"
       x="14.284281"
       y="25.576185"
       width="50.586334"
       height="30.763567"
       rx="5.0739603"
       ry="4.334568"
       style="display:none;opacity:0.3;fill:#134486;fill-opacity:1;stroke:none;stroke-width:2.22536;stroke-linejoin:round;stroke-dasharray:none;stroke-opacity:0.2"
       />
    <rect
       id="envelope-body"
       x="6.224782"
       y="20.515753"
       width="52.076763"
       height="29.75"
       rx="3.6545098"
       ry="3.4000001"
       style="fill:url(#linearGradient3);fill-opacity:1;stroke:none;stroke-width:2.30715;stroke-linejoin:round;stroke-dasharray:none" />
    <path
       style="fill:#ffa30f;fill-opacity:1;stroke:#ffa30f;stroke-width:11.1268;stroke-linecap:butt;stroke-linejoin:round;stroke-miterlimit:0;stroke-dasharray:none;stroke-opacity:1;paint-order:stroke markers fill"
       d="M 10.7364,16.517699 32.630651,34.2884 53.336419,16.224569 Z"
       id="path3"
      
      
       clip-path="url(#clipPath4)"
       transform="translate(0,0.93054096)" />
    <rect
       id="envelope-body-1"
       x="6.224782"
       y="20.515808"
       width="52.076763"
       height="29.75"
       rx="3.6545098"
       ry="3.4000001"
       style="display:none;fill:none;fill-opacity:1;stroke:#d58e00;stroke-width:0.55634;stroke-linejoin:round;stroke-dasharray:none;stroke-opacity:1"
       />
  </g>
  </g>
  <!-- TabMail text -->
  <path
     style="font-weight:600;font-size:37.3333px;font-family:Inter;-inkscape-font-specification:'Inter, Semi-Bold';dominant-baseline:middle;fill:#2c2a34"
     d="m 62,23.395829 h 8.38541 v 23.059877 h 4.867183 V 23.395829 h 8.36718 V 19.29427 H 62 Z m 28.601538,23.479147 c 3.171873,0 5.104163,-1.476561 5.997391,-3.22656 h 0.182292 v 2.80729 h 4.539059 V 32.83853 c 0,-5.432287 -4.484372,-7.018223 -8.312494,-7.018223 -4.08333,0 -7.437493,1.731769 -8.640617,5.322912 l 4.393225,0.893228 c 0.492187,-1.348957 1.895832,-2.57031 4.265621,-2.57031 2.315103,0 3.554685,1.166665 3.554685,3.153643 v 0.09115 c 0,1.403644 -1.49479,1.458332 -5.031246,1.841144 -3.937496,0.41927 -7.765618,1.585936 -7.765618,6.179682 0,4.010413 2.934893,6.143224 6.817702,6.143224 z m 1.221353,-3.518226 c -2.005206,0 -3.445309,-0.911458 -3.445309,-2.679685 0,-1.859374 1.604165,-2.643227 3.736976,-2.934894 1.221353,-0.164062 3.86458,-0.492187 4.5026,-1.002603 v 2.406248 c 0,2.260415 -1.877602,4.210934 -4.794267,4.210934 z m 25.283839,3.463539 c 4.83072,0 8.42186,-3.828122 8.42186,-10.518221 0,-6.781244 -3.70051,-10.481761 -8.40364,-10.481761 -3.6276,0 -5.12239,2.187498 -5.83332,3.627601 h -0.20052 V 19.29427 h -4.73958 v 27.161436 h 4.6302 v -3.22656 h 0.3099 c 0.72916,1.476561 2.3151,3.591143 5.8151,3.591143 z m -1.27605,-3.901039 c -3.09895,0 -4.83072,-2.661456 -4.83072,-6.635411 0,-3.973955 1.69531,-6.562494 4.83072,-6.562494 3.20834,0 4.83073,2.770831 4.83073,6.562494 0,3.828122 -1.65885,6.635411 -4.83073,6.635411 z m 14.03645,3.536456 h 4.77604 V 32.747384 c 0,-2.059894 -0.10938,-5.815099 -0.1823,-8.895826 1.00261,3.499997 2.09636,7.127598 2.73438,8.895826 l 5.08593,13.708322 h 4.13802 l 5.01301,-13.708322 c 0.63802,-1.822915 1.78646,-5.559891 2.71615,-9.041659 -0.0547,3.22656 -0.16407,7.018223 -0.16407,9.041659 v 13.708322 h 4.84896 V 19.29427 h -7.34635 l -5.10416,14.018218 c -0.52865,1.622394 -1.36719,4.976558 -2.00521,7.656243 -0.61979,-2.716143 -1.47656,-6.052078 -2.02343,-7.656243 L 137.19525,19.29427 h -7.32812 z m 39.90361,0.41927 c 3.17187,0 5.10416,-1.476561 5.99739,-3.22656 h 0.18229 v 2.80729 h 4.53906 V 32.83853 c 0,-5.432287 -4.48437,-7.018223 -8.31249,-7.018223 -4.08333,0 -7.43749,1.731769 -8.64062,5.322912 l 4.39323,0.893228 c 0.49218,-1.348957 1.89583,-2.57031 4.26562,-2.57031 2.3151,0 3.55468,1.166665 3.55468,3.153643 v 0.09115 c 0,1.403644 -1.49479,1.458332 -5.03124,1.841144 -3.9375,0.41927 -7.76562,1.585936 -7.76562,6.179682 0,4.010413 2.93489,6.143224 6.8177,6.143224 z m 1.22135,-3.518226 c -2.0052,0 -3.44531,-0.911458 -3.44531,-2.679685 0,-1.859374 1.60417,-2.643227 3.73698,-2.934894 1.22135,-0.164062 3.86458,-0.492187 4.5026,-1.002603 v 2.406248 c 0,2.260415 -1.8776,4.210934 -4.79427,4.210934 z m 14.52864,3.098956 h 4.73958 V 26.075515 h -4.73958 z m 2.36979,-23.260397 c 1.51302,0 2.77083,-1.166666 2.77083,-2.606769 0,-1.440103 -1.25781,-2.588539 -2.77083,-2.588539 -1.51302,0 -2.7526,1.148436 -2.7526,2.588539 0,1.440103 1.23958,2.606769 2.7526,2.606769 z m 12.14062,-3.901039 h -4.73958 v 27.161436 h 4.73958 z"
     id="text2"
     aria-label="TabMail" />
</svg>
