<?xml version="1.0" encoding="UTF-8" standalone="no"?>
<svg
   width="64"
   height="64"
   viewBox="0 0 64 64"
   version="1.1"
   id="svg1"
   xmlns="http://www.w3.org/2000/svg"
   xmlns:svg="http://www.w3.org/2000/svg">
  <defs id="defs1" />
  <g transform="translate(32,32) scale(1.1) translate(-34,-34)">
    <!-- Geometric drop shadow -->
    <path
       id="shadow"
       style="fill:#dde4ee;fill-opacity:1;stroke:none;stroke-width:1.04133;stroke-dasharray:none"
       d="m 20.882149,10.882149 h 30 c 5.523,0 10,4.477 10,10 v 30 c 0,5.523 -4.477,10 -10,10 h -30 c -5.523,0 -10,-4.477 -10,-10 v -30 c 0,-5.523 4.477,-10 10,-10 z" />
    <g
       id="g4"
       style="display:inline">
      <path
         id="rect1"
         style="fill:#fafafa;fill-opacity:1;stroke:#081a2f;stroke-width:2;stroke-linecap:square;stroke-miterlimit:8;stroke-dasharray:none;stroke-opacity:0.951456;paint-order:normal"
         d="m 16,8 h 32 c 4.432,0 8,3.568 8,8 v 32 c 0,4.432 -3.568,8 -8,8 H 16 C 11.568,56 8,52.432 8,48 V 16 c 0,-4.432 3.568,-8 8,-8 z"
         />
      <!-- Geometric drop shadow for arrow+bar -->
      <g
         id="g3-shadow"
         style="stroke:#dde4ee;stroke-linecap:butt;stroke-opacity:1;paint-order:normal"
         transform="translate(1.4119033,2.0167315)"
        >
        <path
           d="M 18.5,26 H 40.3"
           style="fill:none;stroke:#dde4ee;stroke-width:3.06667;stroke-linecap:butt;stroke-dasharray:none;stroke-opacity:1;paint-order:normal"
           id="path1" />
        <path
           d="M 33.73,19.58 40.31,26 33.73,32.42"
           style="fill:none;stroke:#dde4ee;stroke-width:3.06667;stroke-linecap:butt;stroke-linejoin:round;stroke-dasharray:none;stroke-opacity:1;paint-order:normal"
           id="path2" />
        <path
           d="M 44.287949,17.961538 V 33.905231"
           style="fill:none;stroke:#dde4ee;stroke-width:3.40013;stroke-linecap:butt;stroke-dasharray:none;stroke-opacity:1;paint-order:normal"
           id="path3" />
      </g>
      <g
         id="g3"
         style="display:inline;stroke:#2a2a36;stroke-linecap:butt;stroke-opacity:1;paint-order:normal"
         transform="translate(-0.4102564)"
        >
        <path
           id="arrow-shaft"
           d="M 18.5,26 H 40.3"
           style="fill:none;stroke:#2a2a36;stroke-width:3.06667;stroke-linecap:butt;stroke-dasharray:none;stroke-opacity:1;paint-order:normal" />
        <path
           id="arrowhead"
           d="M 33.73,19.58 40.31,26 33.73,32.42"
           style="fill:none;stroke:#2a2a36;stroke-width:3.06667;stroke-linecap:butt;stroke-linejoin:round;stroke-dasharray:none;stroke-opacity:1;paint-order:normal" />
        <path
           id="vertical-bar"
           d="M 44.287949,17.961538 V 33.905231"
           style="fill:none;stroke:#2a2a36;stroke-width:3.40013;stroke-linecap:butt;stroke-dasharray:none;stroke-opacity:1;paint-order:normal" />
      </g>
    </g>
  </g>
</svg>
